<svg xmlns="http://www.w3.org/2000/svg" viewBox="0 0 400 180" preserveAspectRatio="xMidYMid meet">
  <defs>
    <linearGradient id="bgClock" x1="0%" y1="0%" x2="100%" y2="100%">
      <stop offset="0%" stop-color="#faf8f5"/>
      <stop offset="100%" stop-color="#f0ede8"/>
    </linearGradient>
    <linearGradient id="goldClock" x1="0%" y1="0%" x2="100%" y2="0%">
      <stop offset="0%" stop-color="#c9a959"/>
      <stop offset="100%" stop-color="#8b7355"/>
    </linearGradient>
  </defs>
  <rect fill="url(#bgClock)" width="400" height="180" rx="8"/>
  
  <!-- Left: Database -->
  <ellipse cx="60" cy="65" rx="32" ry="8" fill="#c9a959" opacity="0.35"/>
  <rect x="28" y="65" width="64" height="45" fill="#c9a959" opacity="0.25"/>
  <ellipse cx="60" cy="110" rx="32" ry="8" fill="#c9a959" opacity="0.4"/>
  <text x="60" y="90" font-family="Inter, sans-serif" font-size="9" fill="#5a4a35" text-anchor="middle" font-weight="600">2M+</text>
  <text x="60" y="135" font-family="Inter, sans-serif" font-size="7" fill="#5a4a35" text-anchor="middle">samples</text>
  
  <!-- Center: AI Agent -->
  <circle cx="200" cy="90" r="38" fill="url(#goldClock)" opacity="0.3"/>
  <circle cx="200" cy="90" r="28" fill="url(#goldClock)" opacity="0.2"/>
  <circle cx="185" cy="80" r="5" fill="#c9a959" opacity="0.85"/>
  <circle cx="215" cy="80" r="5" fill="#c9a959" opacity="0.85"/>
  <circle cx="200" cy="102" r="5" fill="#c9a959" opacity="0.85"/>
  <line x1="185" y1="85" x2="200" y2="97" stroke="#8b7355" stroke-width="1.5" opacity="0.6"/>
  <line x1="215" y1="85" x2="200" y2="97" stroke="#8b7355" stroke-width="1.5" opacity="0.6"/>
  <line x1="185" y1="80" x2="215" y2="80" stroke="#8b7355" stroke-width="1.5" opacity="0.6"/>
  <text x="200" y="145" font-family="Inter, sans-serif" font-size="8" fill="#5a4a35" text-anchor="middle">AI Agent</text>
  
  <!-- Right: Discoveries -->
  <rect x="295" y="100" width="14" height="28" rx="2" fill="url(#goldClock)" opacity="0.5"/>
  <rect x="315" y="85" width="14" height="43" rx="2" fill="url(#goldClock)" opacity="0.6"/>
  <rect x="335" y="70" width="14" height="58" rx="2" fill="url(#goldClock)" opacity="0.7"/>
  <rect x="355" y="55" width="14" height="73" rx="2" fill="url(#goldClock)" opacity="0.8"/>
  <text x="340" y="145" font-family="Inter, sans-serif" font-size="8" fill="#5a4a35" text-anchor="middle" font-weight="600">500+</text>
  <text x="340" y="157" font-family="Inter, sans-serif" font-size="6" fill="#5a4a35" text-anchor="middle">interventions</text>
  
  <!-- Flow arrows -->
  <path d="M95,90 L158,90" stroke="#8b7355" stroke-width="2" fill="none" opacity="0.4"/>
  <polygon points="158,90 151,86 151,94" fill="#8b7355" opacity="0.4"/>
  <path d="M242,90 L288,90" stroke="#8b7355" stroke-width="2" fill="none" opacity="0.4"/>
  <polygon points="288,90 281,86 281,94" fill="#8b7355" opacity="0.4"/>
</svg>